<mxfile host="65bd71144e">
    <diagram id="gFYBQ6wYkl4yEIxqqVA3" name="Page-1">
        <mxGraphModel dx="724" dy="563" grid="1" gridSize="10" guides="1" tooltips="1" connect="1" arrows="1" fold="1" page="1" pageScale="1" pageWidth="827" pageHeight="1169" math="0" shadow="0">
            <root>
                <mxCell id="0"/>
                <mxCell id="1" parent="0"/>
                <mxCell id="2" value="" style="rounded=0;whiteSpace=wrap;html=1;" parent="1" vertex="1">
                    <mxGeometry x="40" y="70" width="440" height="1720" as="geometry"/>
                </mxCell>
                <mxCell id="12" value="" style="rounded=0;whiteSpace=wrap;html=1;fontSize=20;align=left;" parent="1" vertex="1">
                    <mxGeometry x="60" y="240" width="400" height="1230" as="geometry"/>
                </mxCell>
                <mxCell id="3" value="Editor" style="text;html=1;strokeColor=none;fillColor=none;align=left;verticalAlign=middle;whiteSpace=wrap;rounded=0;fontSize=20;" parent="1" vertex="1">
                    <mxGeometry x="40" y="30" width="80" height="30" as="geometry"/>
                </mxCell>
                <mxCell id="7" value="" style="group;fillColor=#eeeeee;strokeColor=#36393d;" parent="1" vertex="1" connectable="0">
                    <mxGeometry x="60" y="140" width="400" height="40" as="geometry"/>
                </mxCell>
                <mxCell id="5" value="Weather Device" style="rounded=0;whiteSpace=wrap;html=1;fontSize=20;align=left;" parent="7" vertex="1">
                    <mxGeometry width="400" height="40" as="geometry"/>
                </mxCell>
                <mxCell id="6" value="" style="triangle;whiteSpace=wrap;html=1;rotation=90;fillColor=#eeeeee;strokeColor=none;" parent="7" vertex="1">
                    <mxGeometry x="370" y="5" width="20" height="30" as="geometry"/>
                </mxCell>
                <mxCell id="8" value="" style="group" parent="1" vertex="1" connectable="0">
                    <mxGeometry x="60" y="190" width="400" height="40" as="geometry"/>
                </mxCell>
                <mxCell id="9" value="Forecast Entity" style="rounded=0;whiteSpace=wrap;html=1;fontSize=20;align=left;" parent="8" vertex="1">
                    <mxGeometry width="400" height="40" as="geometry"/>
                </mxCell>
                <mxCell id="10" value="" style="triangle;whiteSpace=wrap;html=1;rotation=90;fillColor=#eeeeee;strokeColor=none;" parent="8" vertex="1">
                    <mxGeometry x="370" y="5" width="20" height="30" as="geometry"/>
                </mxCell>
                <mxCell id="78" value="" style="group" parent="1" vertex="1" connectable="0">
                    <mxGeometry x="110" y="390" width="340" height="30" as="geometry"/>
                </mxCell>
                <mxCell id="79" value="Show &quot;Feels Like&quot; Temperature" style="rounded=0;whiteSpace=wrap;html=1;fontSize=20;align=left;strokeColor=none;fillColor=none;" parent="78" vertex="1">
                    <mxGeometry x="50" width="290" height="30" as="geometry"/>
                </mxCell>
                <mxCell id="80" value="" style="group" parent="78" vertex="1" connectable="0">
                    <mxGeometry y="5" width="40" height="20" as="geometry"/>
                </mxCell>
                <mxCell id="81" value="" style="ellipse;whiteSpace=wrap;html=1;aspect=fixed;fillColor=#eeeeee;strokeColor=none;" parent="80" vertex="1">
                    <mxGeometry x="20" width="20" height="20" as="geometry"/>
                </mxCell>
                <mxCell id="82" value="" style="rounded=1;whiteSpace=wrap;html=1;fillColor=none;arcSize=50;" parent="80" vertex="1">
                    <mxGeometry width="40" height="20" as="geometry"/>
                </mxCell>
                <mxCell id="83" value="" style="group" parent="1" vertex="1" connectable="0">
                    <mxGeometry x="90" y="860" width="220" height="30" as="geometry"/>
                </mxCell>
                <mxCell id="84" value="Show Now / Then" style="rounded=0;whiteSpace=wrap;html=1;fontSize=20;align=left;strokeColor=none;fillColor=none;" parent="83" vertex="1">
                    <mxGeometry x="50" width="170" height="30" as="geometry"/>
                </mxCell>
                <mxCell id="85" value="" style="group" parent="83" vertex="1" connectable="0">
                    <mxGeometry y="5" width="40" height="20" as="geometry"/>
                </mxCell>
                <mxCell id="86" value="" style="ellipse;whiteSpace=wrap;html=1;aspect=fixed;fillColor=#eeeeee;strokeColor=none;" parent="85" vertex="1">
                    <mxGeometry x="20" width="20" height="20" as="geometry"/>
                </mxCell>
                <mxCell id="87" value="" style="rounded=1;whiteSpace=wrap;html=1;fillColor=none;arcSize=50;" parent="85" vertex="1">
                    <mxGeometry width="40" height="20" as="geometry"/>
                </mxCell>
                <mxCell id="144" value="" style="group" parent="1" vertex="1" connectable="0">
                    <mxGeometry x="90" y="1370" width="290" height="30" as="geometry"/>
                </mxCell>
                <mxCell id="145" value="Show Forecast Summary" style="rounded=0;whiteSpace=wrap;html=1;fontSize=20;align=left;strokeColor=none;fillColor=none;" parent="144" vertex="1">
                    <mxGeometry x="50" width="240" height="30" as="geometry"/>
                </mxCell>
                <mxCell id="146" value="" style="group" parent="144" vertex="1" connectable="0">
                    <mxGeometry y="5" width="40" height="20" as="geometry"/>
                </mxCell>
                <mxCell id="147" value="" style="ellipse;whiteSpace=wrap;html=1;aspect=fixed;fillColor=#eeeeee;strokeColor=none;" parent="146" vertex="1">
                    <mxGeometry x="20" width="20" height="20" as="geometry"/>
                </mxCell>
                <mxCell id="148" value="" style="rounded=1;whiteSpace=wrap;html=1;fillColor=none;arcSize=50;" parent="146" vertex="1">
                    <mxGeometry width="40" height="20" as="geometry"/>
                </mxCell>
                <mxCell id="149" value="" style="group" parent="1" vertex="1" connectable="0">
                    <mxGeometry x="110" y="1410" width="330" height="40" as="geometry"/>
                </mxCell>
                <mxCell id="150" value="Forecast Summary Entity" style="rounded=0;whiteSpace=wrap;html=1;fontSize=20;align=left;" parent="149" vertex="1">
                    <mxGeometry width="330" height="40" as="geometry"/>
                </mxCell>
                <mxCell id="151" value="" style="triangle;whiteSpace=wrap;html=1;rotation=90;fillColor=#eeeeee;strokeColor=none;" parent="149" vertex="1">
                    <mxGeometry x="301.7142857142857" y="5" width="18.857142857142858" height="30" as="geometry"/>
                </mxCell>
                <mxCell id="34" value="" style="group" parent="1" vertex="1" connectable="0">
                    <mxGeometry x="110" y="690" width="330" height="40" as="geometry"/>
                </mxCell>
                <mxCell id="32" value="Time Entity" style="rounded=0;whiteSpace=wrap;html=1;fontSize=20;align=left;" parent="34" vertex="1">
                    <mxGeometry width="330" height="40" as="geometry"/>
                </mxCell>
                <mxCell id="33" value="" style="triangle;whiteSpace=wrap;html=1;rotation=90;fillColor=#eeeeee;strokeColor=none;" parent="34" vertex="1">
                    <mxGeometry x="301.7142857142857" y="5" width="18.857142857142858" height="30" as="geometry"/>
                </mxCell>
                <mxCell id="35" value="" style="group" parent="1" vertex="1" connectable="0">
                    <mxGeometry x="65" y="250" width="235" height="30" as="geometry"/>
                </mxCell>
                <mxCell id="14" value="" style="shape=cross;whiteSpace=wrap;html=1;fillColor=#eeeeee;strokeColor=none;" parent="35" vertex="1">
                    <mxGeometry y="5" width="20" height="20" as="geometry"/>
                </mxCell>
                <mxCell id="17" value="Summary Options" style="rounded=0;whiteSpace=wrap;html=1;fontSize=20;align=left;strokeColor=none;fillColor=none;" parent="35" vertex="1">
                    <mxGeometry x="25" width="210" height="30" as="geometry"/>
                </mxCell>
                <mxCell id="36" value="" style="group" parent="1" vertex="1" connectable="0">
                    <mxGeometry x="90" y="650" width="160" height="30" as="geometry"/>
                </mxCell>
                <mxCell id="20" value="Show Time" style="rounded=0;whiteSpace=wrap;html=1;fontSize=20;align=left;strokeColor=none;fillColor=none;" parent="36" vertex="1">
                    <mxGeometry x="50" width="110" height="30" as="geometry"/>
                </mxCell>
                <mxCell id="24" value="" style="group" parent="36" vertex="1" connectable="0">
                    <mxGeometry y="5" width="40" height="20" as="geometry"/>
                </mxCell>
                <mxCell id="19" value="" style="ellipse;whiteSpace=wrap;html=1;aspect=fixed;fillColor=#eeeeee;strokeColor=none;" parent="24" vertex="1">
                    <mxGeometry x="20" width="20" height="20" as="geometry"/>
                </mxCell>
                <mxCell id="18" value="" style="rounded=1;whiteSpace=wrap;html=1;fillColor=none;arcSize=50;" parent="24" vertex="1">
                    <mxGeometry width="40" height="20" as="geometry"/>
                </mxCell>
                <mxCell id="37" value="" style="group" parent="1" vertex="1" connectable="0">
                    <mxGeometry x="110" y="740" width="160" height="30" as="geometry"/>
                </mxCell>
                <mxCell id="25" value="Show Date" style="rounded=0;whiteSpace=wrap;html=1;fontSize=20;align=left;strokeColor=none;fillColor=none;" parent="37" vertex="1">
                    <mxGeometry x="50" width="110" height="30" as="geometry"/>
                </mxCell>
                <mxCell id="26" value="" style="group" parent="37" vertex="1" connectable="0">
                    <mxGeometry y="5" width="40" height="20" as="geometry"/>
                </mxCell>
                <mxCell id="27" value="" style="ellipse;whiteSpace=wrap;html=1;aspect=fixed;fillColor=#eeeeee;strokeColor=none;" parent="26" vertex="1">
                    <mxGeometry x="20" width="20" height="20" as="geometry"/>
                </mxCell>
                <mxCell id="28" value="" style="rounded=1;whiteSpace=wrap;html=1;fillColor=none;arcSize=50;" parent="26" vertex="1">
                    <mxGeometry width="40" height="20" as="geometry"/>
                </mxCell>
                <mxCell id="39" value="" style="group" parent="1" vertex="1" connectable="0">
                    <mxGeometry x="110" y="780" width="330" height="40" as="geometry"/>
                </mxCell>
                <mxCell id="40" value="Date Entity" style="rounded=0;whiteSpace=wrap;html=1;fontSize=20;align=left;" parent="39" vertex="1">
                    <mxGeometry width="330" height="40" as="geometry"/>
                </mxCell>
                <mxCell id="41" value="" style="triangle;whiteSpace=wrap;html=1;rotation=90;fillColor=#eeeeee;strokeColor=none;" parent="39" vertex="1">
                    <mxGeometry x="301.7142857142857" y="5" width="18.857142857142858" height="30" as="geometry"/>
                </mxCell>
                <mxCell id="42" value="" style="group" parent="1" vertex="1" connectable="0">
                    <mxGeometry x="110" y="590" width="340" height="30" as="geometry"/>
                </mxCell>
                <mxCell id="43" value="Use Default HA Weather Icons" style="rounded=0;whiteSpace=wrap;html=1;fontSize=20;align=left;strokeColor=none;fillColor=none;" parent="42" vertex="1">
                    <mxGeometry x="50" width="290" height="30" as="geometry"/>
                </mxCell>
                <mxCell id="44" value="" style="group" parent="42" vertex="1" connectable="0">
                    <mxGeometry y="5" width="40" height="20" as="geometry"/>
                </mxCell>
                <mxCell id="45" value="" style="ellipse;whiteSpace=wrap;html=1;aspect=fixed;fillColor=#eeeeee;strokeColor=none;" parent="44" vertex="1">
                    <mxGeometry x="20" width="20" height="20" as="geometry"/>
                </mxCell>
                <mxCell id="46" value="" style="rounded=1;whiteSpace=wrap;html=1;fillColor=none;arcSize=50;" parent="44" vertex="1">
                    <mxGeometry width="40" height="20" as="geometry"/>
                </mxCell>
                <mxCell id="74" value="" style="group" parent="1" vertex="1" connectable="0">
                    <mxGeometry x="110" y="430" width="330" height="40" as="geometry"/>
                </mxCell>
                <mxCell id="75" value="Feels Like Temperature Entity" style="rounded=0;whiteSpace=wrap;html=1;fontSize=20;align=left;" parent="74" vertex="1">
                    <mxGeometry width="330" height="40" as="geometry"/>
                </mxCell>
                <mxCell id="76" value="" style="triangle;whiteSpace=wrap;html=1;rotation=90;fillColor=#eeeeee;strokeColor=none;" parent="74" vertex="1">
                    <mxGeometry x="301.7142857142858" y="5" width="18.85714285714286" height="30" as="geometry"/>
                </mxCell>
                <mxCell id="88" value="" style="group" parent="1" vertex="1" connectable="0">
                    <mxGeometry x="110" y="900" width="330" height="40" as="geometry"/>
                </mxCell>
                <mxCell id="89" value="Now Temp Entity" style="rounded=0;whiteSpace=wrap;html=1;fontSize=20;align=left;" parent="88" vertex="1">
                    <mxGeometry width="330" height="40" as="geometry"/>
                </mxCell>
                <mxCell id="90" value="" style="triangle;whiteSpace=wrap;html=1;rotation=90;fillColor=#eeeeee;strokeColor=none;" parent="88" vertex="1">
                    <mxGeometry x="301.7142857142857" y="5" width="18.857142857142858" height="30" as="geometry"/>
                </mxCell>
                <mxCell id="91" value="" style="group" parent="1" vertex="1" connectable="0">
                    <mxGeometry x="110" y="950" width="330" height="40" as="geometry"/>
                </mxCell>
                <mxCell id="92" value="Now Label Entity" style="rounded=0;whiteSpace=wrap;html=1;fontSize=20;align=left;" parent="91" vertex="1">
                    <mxGeometry width="330" height="40" as="geometry"/>
                </mxCell>
                <mxCell id="93" value="" style="triangle;whiteSpace=wrap;html=1;rotation=90;fillColor=#eeeeee;strokeColor=none;" parent="91" vertex="1">
                    <mxGeometry x="301.7142857142857" y="5" width="18.857142857142858" height="30" as="geometry"/>
                </mxCell>
                <mxCell id="94" value="" style="group" parent="1" vertex="1" connectable="0">
                    <mxGeometry x="110" y="1000" width="330" height="40" as="geometry"/>
                </mxCell>
                <mxCell id="95" value="Then Temp Entity" style="rounded=0;whiteSpace=wrap;html=1;fontSize=20;align=left;" parent="94" vertex="1">
                    <mxGeometry width="330" height="40" as="geometry"/>
                </mxCell>
                <mxCell id="96" value="" style="triangle;whiteSpace=wrap;html=1;rotation=90;fillColor=#eeeeee;strokeColor=none;" parent="94" vertex="1">
                    <mxGeometry x="301.7142857142857" y="5" width="18.857142857142858" height="30" as="geometry"/>
                </mxCell>
                <mxCell id="97" value="" style="group" parent="1" vertex="1" connectable="0">
                    <mxGeometry x="110" y="1050" width="330" height="40" as="geometry"/>
                </mxCell>
                <mxCell id="98" value="Then Label Entity" style="rounded=0;whiteSpace=wrap;html=1;fontSize=20;align=left;" parent="97" vertex="1">
                    <mxGeometry width="330" height="40" as="geometry"/>
                </mxCell>
                <mxCell id="99" value="" style="triangle;whiteSpace=wrap;html=1;rotation=90;fillColor=#eeeeee;strokeColor=none;" parent="97" vertex="1">
                    <mxGeometry x="301.7142857142857" y="5" width="18.857142857142858" height="30" as="geometry"/>
                </mxCell>
                <mxCell id="100" value="" style="group" parent="1" vertex="1" connectable="0">
                    <mxGeometry x="90" y="1130" width="270" height="30" as="geometry"/>
                </mxCell>
                <mxCell id="101" value="Show Warnings Count" style="rounded=0;whiteSpace=wrap;html=1;fontSize=20;align=left;strokeColor=none;fillColor=none;" parent="100" vertex="1">
                    <mxGeometry x="50" width="220" height="30" as="geometry"/>
                </mxCell>
                <mxCell id="102" value="" style="group" parent="100" vertex="1" connectable="0">
                    <mxGeometry y="5" width="40" height="20" as="geometry"/>
                </mxCell>
                <mxCell id="103" value="" style="ellipse;whiteSpace=wrap;html=1;aspect=fixed;fillColor=#eeeeee;strokeColor=none;" parent="102" vertex="1">
                    <mxGeometry x="20" width="20" height="20" as="geometry"/>
                </mxCell>
                <mxCell id="104" value="" style="rounded=1;whiteSpace=wrap;html=1;fillColor=none;arcSize=50;" parent="102" vertex="1">
                    <mxGeometry width="40" height="20" as="geometry"/>
                </mxCell>
                <mxCell id="105" value="" style="group" parent="1" vertex="1" connectable="0">
                    <mxGeometry x="110" y="1170" width="330" height="40" as="geometry"/>
                </mxCell>
                <mxCell id="106" value="Warnings Count Entity" style="rounded=0;whiteSpace=wrap;html=1;fontSize=20;align=left;" parent="105" vertex="1">
                    <mxGeometry width="330" height="40" as="geometry"/>
                </mxCell>
                <mxCell id="107" value="" style="triangle;whiteSpace=wrap;html=1;rotation=90;fillColor=#eeeeee;strokeColor=none;" parent="105" vertex="1">
                    <mxGeometry x="301.7142857142857" y="5" width="18.857142857142858" height="30" as="geometry"/>
                </mxCell>
                <mxCell id="108" value="" style="group" parent="1" vertex="1" connectable="0">
                    <mxGeometry x="90" y="1250" width="270" height="30" as="geometry"/>
                </mxCell>
                <mxCell id="109" value="Show Rain Summary" style="rounded=0;whiteSpace=wrap;html=1;fontSize=20;align=left;strokeColor=none;fillColor=none;" parent="108" vertex="1">
                    <mxGeometry x="50" width="220" height="30" as="geometry"/>
                </mxCell>
                <mxCell id="110" value="" style="group" parent="108" vertex="1" connectable="0">
                    <mxGeometry y="5" width="40" height="20" as="geometry"/>
                </mxCell>
                <mxCell id="111" value="" style="ellipse;whiteSpace=wrap;html=1;aspect=fixed;fillColor=#eeeeee;strokeColor=none;" parent="110" vertex="1">
                    <mxGeometry x="20" width="20" height="20" as="geometry"/>
                </mxCell>
                <mxCell id="112" value="" style="rounded=1;whiteSpace=wrap;html=1;fillColor=none;arcSize=50;" parent="110" vertex="1">
                    <mxGeometry width="40" height="20" as="geometry"/>
                </mxCell>
                <mxCell id="113" value="" style="group" parent="1" vertex="1" connectable="0">
                    <mxGeometry x="110" y="1290" width="330" height="40" as="geometry"/>
                </mxCell>
                <mxCell id="114" value="Rain Summary Entity" style="rounded=0;whiteSpace=wrap;html=1;fontSize=20;align=left;" parent="113" vertex="1">
                    <mxGeometry width="330" height="40" as="geometry"/>
                </mxCell>
                <mxCell id="115" value="" style="triangle;whiteSpace=wrap;html=1;rotation=90;fillColor=#eeeeee;strokeColor=none;" parent="113" vertex="1">
                    <mxGeometry x="301.7142857142857" y="5" width="18.857142857142858" height="30" as="geometry"/>
                </mxCell>
                <mxCell id="152" value="" style="group" parent="1" vertex="1" connectable="0">
                    <mxGeometry x="90" y="300" width="340" height="40" as="geometry"/>
                </mxCell>
                <mxCell id="153" value="Show Current Temperature" style="rounded=0;whiteSpace=wrap;html=1;fontSize=20;align=left;strokeColor=none;fillColor=none;" parent="152" vertex="1">
                    <mxGeometry x="50" width="290" height="30" as="geometry"/>
                </mxCell>
                <mxCell id="154" value="" style="group" parent="152" vertex="1" connectable="0">
                    <mxGeometry y="5" width="40" height="20" as="geometry"/>
                </mxCell>
                <mxCell id="155" value="" style="ellipse;whiteSpace=wrap;html=1;aspect=fixed;fillColor=#eeeeee;strokeColor=none;" parent="154" vertex="1">
                    <mxGeometry x="20" width="20" height="20" as="geometry"/>
                </mxCell>
                <mxCell id="156" value="" style="rounded=1;whiteSpace=wrap;html=1;fillColor=none;arcSize=50;" parent="154" vertex="1">
                    <mxGeometry width="40" height="20" as="geometry"/>
                </mxCell>
                <mxCell id="157" value="" style="group" parent="1" vertex="1" connectable="0">
                    <mxGeometry x="110" y="340" width="330" height="40" as="geometry"/>
                </mxCell>
                <mxCell id="158" value="Current Temperature Entity" style="rounded=0;whiteSpace=wrap;html=1;fontSize=20;align=left;" parent="157" vertex="1">
                    <mxGeometry width="330" height="40" as="geometry"/>
                </mxCell>
                <mxCell id="159" value="" style="triangle;whiteSpace=wrap;html=1;rotation=90;fillColor=#eeeeee;strokeColor=none;" parent="157" vertex="1">
                    <mxGeometry x="301.7142857142858" y="5" width="18.85714285714286" height="30" as="geometry"/>
                </mxCell>
                <mxCell id="162" value="" style="group" parent="1" vertex="1" connectable="0">
                    <mxGeometry x="60" y="1510" width="400" height="110" as="geometry"/>
                </mxCell>
                <mxCell id="124" value="" style="rounded=0;whiteSpace=wrap;html=1;fontSize=20;align=left;" parent="162" vertex="1">
                    <mxGeometry width="400" height="110" as="geometry"/>
                </mxCell>
                <mxCell id="125" value="" style="group" parent="162" vertex="1" connectable="0">
                    <mxGeometry x="5" y="10" width="260" height="30" as="geometry"/>
                </mxCell>
                <mxCell id="126" value="" style="shape=cross;whiteSpace=wrap;html=1;fillColor=#eeeeee;strokeColor=none;" parent="125" vertex="1">
                    <mxGeometry y="5" width="20" height="20" as="geometry"/>
                </mxCell>
                <mxCell id="127" value="Hourly Forecast Options" style="rounded=0;whiteSpace=wrap;html=1;fontSize=20;align=left;strokeColor=none;fillColor=none;" parent="125" vertex="1">
                    <mxGeometry x="25" width="235" height="30" as="geometry"/>
                </mxCell>
                <mxCell id="128" value="" style="group" parent="162" vertex="1" connectable="0">
                    <mxGeometry x="30" y="60" width="340" height="30" as="geometry"/>
                </mxCell>
                <mxCell id="129" value="Show Hourly Forecast" style="rounded=0;whiteSpace=wrap;html=1;fontSize=20;align=left;strokeColor=none;fillColor=none;" parent="128" vertex="1">
                    <mxGeometry x="50" width="290" height="30" as="geometry"/>
                </mxCell>
                <mxCell id="130" value="" style="group" parent="128" vertex="1" connectable="0">
                    <mxGeometry y="5" width="40" height="20" as="geometry"/>
                </mxCell>
                <mxCell id="131" value="" style="ellipse;whiteSpace=wrap;html=1;aspect=fixed;fillColor=#eeeeee;strokeColor=none;" parent="130" vertex="1">
                    <mxGeometry x="20" width="20" height="20" as="geometry"/>
                </mxCell>
                <mxCell id="132" value="" style="rounded=1;whiteSpace=wrap;html=1;fillColor=none;arcSize=50;" parent="130" vertex="1">
                    <mxGeometry width="40" height="20" as="geometry"/>
                </mxCell>
                <mxCell id="163" value="" style="group" parent="1" vertex="1" connectable="0">
                    <mxGeometry x="60" y="1650" width="400" height="110" as="geometry"/>
                </mxCell>
                <mxCell id="133" value="" style="rounded=0;whiteSpace=wrap;html=1;fontSize=20;align=left;" parent="163" vertex="1">
                    <mxGeometry width="400" height="110" as="geometry"/>
                </mxCell>
                <mxCell id="134" value="" style="group" parent="163" vertex="1" connectable="0">
                    <mxGeometry x="5" y="10" width="260" height="30" as="geometry"/>
                </mxCell>
                <mxCell id="135" value="" style="shape=cross;whiteSpace=wrap;html=1;fillColor=#eeeeee;strokeColor=none;" parent="134" vertex="1">
                    <mxGeometry y="5" width="20" height="20" as="geometry"/>
                </mxCell>
                <mxCell id="136" value="Daily Forecast Options" style="rounded=0;whiteSpace=wrap;html=1;fontSize=20;align=left;strokeColor=none;fillColor=none;" parent="134" vertex="1">
                    <mxGeometry x="25" width="235" height="30" as="geometry"/>
                </mxCell>
                <mxCell id="137" value="" style="group" parent="163" vertex="1" connectable="0">
                    <mxGeometry x="30" y="60" width="340" height="30" as="geometry"/>
                </mxCell>
                <mxCell id="138" value="Show Daily Forecast" style="rounded=0;whiteSpace=wrap;html=1;fontSize=20;align=left;strokeColor=none;fillColor=none;" parent="137" vertex="1">
                    <mxGeometry x="50" width="290" height="30" as="geometry"/>
                </mxCell>
                <mxCell id="139" value="" style="group" parent="137" vertex="1" connectable="0">
                    <mxGeometry y="5" width="40" height="20" as="geometry"/>
                </mxCell>
                <mxCell id="140" value="" style="ellipse;whiteSpace=wrap;html=1;aspect=fixed;fillColor=#eeeeee;strokeColor=none;" parent="139" vertex="1">
                    <mxGeometry x="20" width="20" height="20" as="geometry"/>
                </mxCell>
                <mxCell id="141" value="" style="rounded=1;whiteSpace=wrap;html=1;fillColor=none;arcSize=50;" parent="139" vertex="1">
                    <mxGeometry width="40" height="20" as="geometry"/>
                </mxCell>
                <mxCell id="164" value="" style="group;fillColor=#eeeeee;strokeColor=#36393d;" parent="1" vertex="1" connectable="0">
                    <mxGeometry x="60" y="90" width="400" height="40" as="geometry"/>
                </mxCell>
                <mxCell id="165" value="Title" style="rounded=0;whiteSpace=wrap;html=1;fontSize=20;align=left;" parent="164" vertex="1">
                    <mxGeometry width="400" height="40" as="geometry"/>
                </mxCell>
                <mxCell id="166" value="" style="group" vertex="1" connectable="0" parent="1">
                    <mxGeometry x="90" y="500" width="340" height="40" as="geometry"/>
                </mxCell>
                <mxCell id="167" value="Show Weather Icon" style="rounded=0;whiteSpace=wrap;html=1;fontSize=20;align=left;strokeColor=none;fillColor=none;" vertex="1" parent="166">
                    <mxGeometry x="50" width="290" height="30" as="geometry"/>
                </mxCell>
                <mxCell id="168" value="" style="group" vertex="1" connectable="0" parent="166">
                    <mxGeometry y="5" width="40" height="20" as="geometry"/>
                </mxCell>
                <mxCell id="169" value="" style="ellipse;whiteSpace=wrap;html=1;aspect=fixed;fillColor=#eeeeee;strokeColor=none;" vertex="1" parent="168">
                    <mxGeometry x="20" width="20" height="20" as="geometry"/>
                </mxCell>
                <mxCell id="170" value="" style="rounded=1;whiteSpace=wrap;html=1;fillColor=none;arcSize=50;" vertex="1" parent="168">
                    <mxGeometry width="40" height="20" as="geometry"/>
                </mxCell>
                <mxCell id="171" value="" style="group" vertex="1" connectable="0" parent="1">
                    <mxGeometry x="110" y="540" width="330" height="40" as="geometry"/>
                </mxCell>
                <mxCell id="172" value="Weather Icon Entity" style="rounded=0;whiteSpace=wrap;html=1;fontSize=20;align=left;" vertex="1" parent="171">
                    <mxGeometry width="330" height="40" as="geometry"/>
                </mxCell>
                <mxCell id="173" value="" style="triangle;whiteSpace=wrap;html=1;rotation=90;fillColor=#eeeeee;strokeColor=none;" vertex="1" parent="171">
                    <mxGeometry x="301.7142857142858" y="5" width="18.85714285714286" height="30" as="geometry"/>
                </mxCell>
            </root>
        </mxGraphModel>
    </diagram>
</mxfile>